<svg width="32" height="32" viewBox="0 0 32 32" fill="none" xmlns="http://www.w3.org/2000/svg">
<path d="M27.2071 6.06875C24.2143 3.44375 20.2286 2 15.9929 2C7.25 2 0.135714 8.225 0.135714 15.875C0.135714 18.3188 0.864286 20.7062 2.25 22.8125L0 30L8.40714 28.0688C10.7214 29.175 13.3286 29.7563 15.9857 29.7563H15.9929C24.7286 29.7563 32 23.5312 32 15.8813C32 12.175 30.2 8.69375 27.2071 6.06875ZM15.9929 27.4188C13.6214 27.4188 11.3 26.8625 9.27857 25.8125L8.8 25.5625L3.81429 26.7062L5.14286 22.45L4.82857 22.0125C3.50714 20.175 2.81429 18.0562 2.81429 15.875C2.81429 9.51875 8.72857 4.34375 16 4.34375C19.5214 4.34375 22.8286 5.54375 25.3143 7.725C27.8 9.90625 29.3286 12.8 29.3214 15.8813C29.3214 22.2438 23.2571 27.4188 15.9929 27.4188ZM23.2214 18.7812C22.8286 18.6063 20.8786 17.7688 20.5143 17.6562C20.15 17.5375 19.8857 17.4812 19.6214 17.8312C19.3571 18.1812 18.6 18.9563 18.3643 19.1938C18.1357 19.425 17.9 19.4562 17.5071 19.2812C15.1786 18.2625 13.65 17.4625 12.1143 15.1562C11.7071 14.5437 12.5214 14.5875 13.2786 13.2625C13.4071 13.0312 13.3429 12.8313 13.2429 12.6562C13.1429 12.4812 12.35 10.775 12.0214 10.0813C11.7 9.40625 11.3714 9.5 11.1286 9.4875C10.9 9.475 10.6357 9.475 10.3714 9.475C10.1071 9.475 9.67857 9.5625 9.31429 9.90625C8.95 10.2563 7.92857 11.0938 7.92857 12.8C7.92857 14.5063 9.35 16.1563 9.54286 16.3875C9.74286 16.6188 12.3357 20.1187 16.3143 21.625C18.8286 22.575 19.8143 22.6562 21.0714 22.4937C21.8357 22.3937 23.4143 21.6562 23.7429 20.8438C24.0714 20.0312 24.0714 19.3375 23.9714 19.1938C23.8786 19.0375 23.6143 18.95 23.2214 18.7812Z" fill="white"/>
</svg>
